
<svg xmlns="http://www.w3.org/2000/svg" viewBox="0 0 500 500">
  <g class="contour">
    <polyline fill="none" stroke="black" points="100,100 110,110 120,100" />
<polyline fill="none" stroke="black" points="102,100 112,110 122,100" />
<polyline fill="none" stroke="black" points="104,100 114,110 124,100" />
<polyline fill="none" stroke="black" points="106,100 116,110 126,100" />
<polyline fill="none" stroke="black" points="108,100 118,110 128,100" />
<polyline fill="none" stroke="black" points="110,100 120,110 130,100" />
<polyline fill="none" stroke="black" points="112,100 122,110 132,100" />
<polyline fill="none" stroke="black" points="114,100 124,110 134,100" />
<polyline fill="none" stroke="black" points="116,100 126,110 136,100" />
<polyline fill="none" stroke="black" points="118,100 128,110 138,100" />
<polyline fill="none" stroke="black" points="120,100 130,110 140,100" />
<polyline fill="none" stroke="black" points="122,100 132,110 142,100" />
<polyline fill="none" stroke="black" points="124,100 134,110 144,100" />
<polyline fill="none" stroke="black" points="126,100 136,110 146,100" />
<polyline fill="none" stroke="black" points="128,100 138,110 148,100" />
<polyline fill="none" stroke="black" points="130,100 140,110 150,100" />
<polyline fill="none" stroke="black" points="132,100 142,110 152,100" />
<polyline fill="none" stroke="black" points="134,100 144,110 154,100" />
<polyline fill="none" stroke="black" points="136,100 146,110 156,100" />
<polyline fill="none" stroke="black" points="138,100 148,110 158,100" />
<polyline fill="none" stroke="black" points="140,100 150,110 160,100" />
<polyline fill="none" stroke="black" points="142,100 152,110 162,100" />
<polyline fill="none" stroke="black" points="144,100 154,110 164,100" />
<polyline fill="none" stroke="black" points="146,100 156,110 166,100" />
<polyline fill="none" stroke="black" points="148,100 158,110 168,100" />
<polyline fill="none" stroke="black" points="150,100 160,110 170,100" />
<polyline fill="none" stroke="black" points="152,100 162,110 172,100" />
<polyline fill="none" stroke="black" points="154,100 164,110 174,100" />
<polyline fill="none" stroke="black" points="156,100 166,110 176,100" />
<polyline fill="none" stroke="black" points="158,100 168,110 178,100" />
<polyline fill="none" stroke="black" points="160,100 170,110 180,100" />
<polyline fill="none" stroke="black" points="162,100 172,110 182,100" />
<polyline fill="none" stroke="black" points="164,100 174,110 184,100" />
<polyline fill="none" stroke="black" points="166,100 176,110 186,100" />
<polyline fill="none" stroke="black" points="168,100 178,110 188,100" />
<polyline fill="none" stroke="black" points="170,100 180,110 190,100" />
<polyline fill="none" stroke="black" points="172,100 182,110 192,100" />
<polyline fill="none" stroke="black" points="174,100 184,110 194,100" />
<polyline fill="none" stroke="black" points="176,100 186,110 196,100" />
<polyline fill="none" stroke="black" points="178,100 188,110 198,100" />
<polyline fill="none" stroke="black" points="180,100 190,110 200,100" />
<polyline fill="none" stroke="black" points="182,100 192,110 202,100" />
<polyline fill="none" stroke="black" points="184,100 194,110 204,100" />
<polyline fill="none" stroke="black" points="186,100 196,110 206,100" />
<polyline fill="none" stroke="black" points="188,100 198,110 208,100" />
<polyline fill="none" stroke="black" points="190,100 200,110 210,100" />
<polyline fill="none" stroke="black" points="192,100 202,110 212,100" />
<polyline fill="none" stroke="black" points="194,100 204,110 214,100" />
<polyline fill="none" stroke="black" points="196,100 206,110 216,100" />
<polyline fill="none" stroke="black" points="198,100 208,110 218,100" />
<polyline fill="none" stroke="black" points="200,100 210,110 220,100" />
<polyline fill="none" stroke="black" points="202,100 212,110 222,100" />
<polyline fill="none" stroke="black" points="204,100 214,110 224,100" />
<polyline fill="none" stroke="black" points="206,100 216,110 226,100" />
<polyline fill="none" stroke="black" points="208,100 218,110 228,100" />
<polyline fill="none" stroke="black" points="210,100 220,110 230,100" />
<polyline fill="none" stroke="black" points="212,100 222,110 232,100" />
<polyline fill="none" stroke="black" points="214,100 224,110 234,100" />
<polyline fill="none" stroke="black" points="216,100 226,110 236,100" />
<polyline fill="none" stroke="black" points="218,100 228,110 238,100" />
<polyline fill="none" stroke="black" points="220,100 230,110 240,100" />
<polyline fill="none" stroke="black" points="222,100 232,110 242,100" />
<polyline fill="none" stroke="black" points="224,100 234,110 244,100" />
<polyline fill="none" stroke="black" points="226,100 236,110 246,100" />
<polyline fill="none" stroke="black" points="228,100 238,110 248,100" />
<polyline fill="none" stroke="black" points="230,100 240,110 250,100" />
<polyline fill="none" stroke="black" points="232,100 242,110 252,100" />
<polyline fill="none" stroke="black" points="234,100 244,110 254,100" />
<polyline fill="none" stroke="black" points="236,100 246,110 256,100" />
<polyline fill="none" stroke="black" points="238,100 248,110 258,100" />
<polyline fill="none" stroke="black" points="240,100 250,110 260,100" />
<polyline fill="none" stroke="black" points="242,100 252,110 262,100" />
<polyline fill="none" stroke="black" points="244,100 254,110 264,100" />
<polyline fill="none" stroke="black" points="246,100 256,110 266,100" />
<polyline fill="none" stroke="black" points="248,100 258,110 268,100" />
<polyline fill="none" stroke="black" points="250,100 260,110 270,100" />
<polyline fill="none" stroke="black" points="252,100 262,110 272,100" />
<polyline fill="none" stroke="black" points="254,100 264,110 274,100" />
<polyline fill="none" stroke="black" points="256,100 266,110 276,100" />
<polyline fill="none" stroke="black" points="258,100 268,110 278,100" />
<polyline fill="none" stroke="black" points="260,100 270,110 280,100" />
<polyline fill="none" stroke="black" points="262,100 272,110 282,100" />
<polyline fill="none" stroke="black" points="264,100 274,110 284,100" />
<polyline fill="none" stroke="black" points="266,100 276,110 286,100" />
<polyline fill="none" stroke="black" points="268,100 278,110 288,100" />
<polyline fill="none" stroke="black" points="270,100 280,110 290,100" />
<polyline fill="none" stroke="black" points="272,100 282,110 292,100" />
<polyline fill="none" stroke="black" points="274,100 284,110 294,100" />
<polyline fill="none" stroke="black" points="276,100 286,110 296,100" />
<polyline fill="none" stroke="black" points="278,100 288,110 298,100" />
<polyline fill="none" stroke="black" points="280,100 290,110 300,100" />
<polyline fill="none" stroke="black" points="282,100 292,110 302,100" />
<polyline fill="none" stroke="black" points="284,100 294,110 304,100" />
<polyline fill="none" stroke="black" points="286,100 296,110 306,100" />
<polyline fill="none" stroke="black" points="288,100 298,110 308,100" />
<polyline fill="none" stroke="black" points="290,100 300,110 310,100" />
<polyline fill="none" stroke="black" points="292,100 302,110 312,100" />
<polyline fill="none" stroke="black" points="294,100 304,110 314,100" />
<polyline fill="none" stroke="black" points="296,100 306,110 316,100" />
<polyline fill="none" stroke="black" points="298,100 308,110 318,100" />
  </g>
</svg>
